<svg xmlns="http://www.w3.org/2000/svg" viewBox="0 0 512 512">
  <defs>
    <linearGradient id="walletGradient" x1="0%" y1="100%" x2="100%" y2="0%">
      <stop offset="0%" stop-color="#059669" />
      <stop offset="100%" stop-color="#14b8a6" />
    </linearGradient>
  </defs>
  <rect width="512" height="512" rx="120" fill="url(#walletGradient)" />
  <g transform="translate(106, 106) scale(12.5)" stroke="#ffffff" stroke-width="1.8" stroke-linecap="round" stroke-linejoin="round" fill="none">
    <path d="M19 7V4a1 1 0 0 0-1-1H5a2 2 0 0 0 0 4h15a1 1 0 0 1 1 1v4h-3a2 2 0 0 0 0 4h3a1 1 0 0 0 1-1v-2a1 1 0 0 0-1-1" />
    <path d="M3 5v14a2 2 0 0 0 2 2h15a1 1 0 0 0 1-1v-4" />
  </g>
</svg>